Coordinates
version=1
nRows=21
nColumns=22
inDegrees=yes

Units are S.I. units (second, meters, Newtons, ...)
If the header above contains a line with 'inDegrees', this indicates whether rotational values are in degrees (yes) or radians (no).

endheader
time	pelvis_tilt	pelvis_list	pelvis_rotation	pelvis_tx	pelvis_ty	pelvis_tz	hip_flexion_r	hip_adduction_r	hip_rotation_r	knee_angle_r	ankle_angle_r	subtalar_angle_r	hip_flexion_l	hip_adduction_l	hip_rotation_l	knee_angle_l	ankle_angle_l	subtalar_angle_l	lumbar_extension	lumbar_bending	lumbar_rotation
      1.79000000	     -5.82779771	     -0.19088756	    -18.60015534	     -0.91930323	      0.86256726	     -0.37616640	     -4.54938687	      0.10774493	      7.64391511	    -10.57187939	     23.26938316	     -5.24606312	     35.75805954	    -14.01804650	     -2.51596458	    -24.20322638	      7.74993708	      7.37292117	     -5.93525835	      1.85102769	     19.90656424
      1.80000000	     -5.88912502	     -0.19245251	    -18.64597889	     -0.91300138	      0.86089692	     -0.37622880	     -4.80481877	     -0.01824910	      7.62606914	    -10.82363957	     23.65264541	     -5.07914297	     35.88219171	    -14.06044614	     -2.45104173	    -22.61847756	      7.55902676	      7.69302887	     -5.92740315	      1.85390045	     19.93907211
      1.81000000	     -5.93767317	     -0.20942005	    -18.68595585	     -0.90650724	      0.85919593	     -0.37631921	     -5.08457626	     -0.13647872	      7.61383048	    -11.09456314	     24.02309316	     -4.91170887	     36.02647976	    -14.12427108	     -2.53135430	    -21.24371212	      7.38241533	      7.90098710	     -5.93012941	      1.86097119	     19.95593148
      1.82000000	     -5.98604675	     -0.25046501	    -18.71686992	     -0.89984994	      0.85746074	     -0.37646989	     -5.37808823	     -0.23486902	      7.59938383	    -11.37918890	     24.36735761	     -4.80581399	     36.21474802	    -14.21202597	     -2.74388155	    -20.10154088	      7.17296227	      7.97108709	     -5.93950422	      1.89025743	     19.95819234
      1.83000000	     -6.00233925	     -0.27413792	    -18.75699480	     -0.89295234	      0.85574081	     -0.37666809	     -5.72577766	     -0.37795454	      7.58876936	    -11.64060749	     24.68829034	     -4.63908382	     36.38773661	    -14.28070128	     -3.11137040	    -19.17052611	      7.01932306	      7.99851655	     -5.96575235	      1.88240267	     19.97185091
      1.84000000	     -6.00954920	     -0.31427085	    -18.79666674	     -0.88585600	      0.85403054	     -0.37694208	     -6.12130412	     -0.52262732	      7.59367286	    -11.86079080	     24.95850557	     -4.43597266	     36.57517508	    -14.35534642	     -3.56338293	    -18.46414994	      6.87873896	      7.94419788	     -6.00412095	      1.88520158	     19.98594893
      1.85000000	     -6.01225450	     -0.36736863	    -18.83645882	     -0.87856233	      0.85233503	     -0.37730392	     -6.55957021	     -0.67268564	      7.60915231	    -12.03663866	     25.18781945	     -4.21114520	     36.78934806	    -14.43301645	     -4.09198785	    -18.00169543	      6.72495342	      7.80982707	     -6.05016453	      1.89864462	     19.99534490
      1.86000000	     -6.01706421	     -0.42456345	    -18.87582679	     -0.87105414	      0.85066185	     -0.37776625	     -7.03280024	     -0.83789872	      7.62703640	    -12.16313280	     25.33736025	     -3.94613200	     37.02389052	    -14.50205686	     -4.65620608	    -17.76337854	      6.60056296	      7.59760867	     -6.09242107	      1.91425362	     20.00590810
      1.87000000	     -6.02587044	     -0.49762045	    -18.90366415	     -0.86334833	      0.84903076	     -0.37836352	     -7.53275385	     -1.00534321	      7.62675954	    -12.25771763	     25.42914787	     -3.60252050	     37.26992160	    -14.55893956	     -5.18047425	    -17.72263792	      6.45405603	      7.28845814	     -6.13810133	      1.94750974	     20.01365220
      1.88000000	     -6.06714954	     -0.57407939	    -18.94035175	     -0.85541521	      0.84740303	     -0.37904660	     -8.03329203	     -1.17791872	      7.66084073	    -12.30822548	     25.43309141	     -3.28337766	     37.55739782	    -14.61740874	     -5.69325322	    -17.89357988	      6.36585691	      6.98134359	     -6.14376830	      1.99205813	     20.03004081
      1.89000000	     -6.12954104	     -0.66401013	    -18.98237441	     -0.84723217	      0.84582074	     -0.37982481	     -8.54962681	     -1.35136164	      7.70806367	    -12.31369153	     25.34857129	     -2.93807568	     37.85433228	    -14.67648753	     -6.16592537	    -18.23859431	      6.31974235	      6.64233167	     -6.12555283	      2.05622962	     20.06523079
      1.90000000	     -6.21554518	     -0.73813028	    -19.00113087	     -0.83876589	      0.84426608	     -0.38074024	     -9.06074889	     -1.55156255	      7.71959585	    -12.30068526	     25.17838488	     -2.51018864	     38.17030962	    -14.68909974	     -6.56642012	    -18.74152753	      6.31108293	      6.22699914	     -6.06541719	      2.10843822	     20.07675234
      1.91000000	     -6.32525667	     -0.85008300	    -19.03448893	     -0.83004488	      0.84278347	     -0.38168293	     -9.58928075	     -1.71909400	      7.77688277	    -12.24950929	     24.90423777	     -2.10543421	     38.47856008	    -14.73295237	     -6.92187005	    -19.37874471	      6.33453145	      5.83146033	     -5.98364285	      2.19660216	     20.13481842
      1.92000000	     -6.46106241	     -0.94266054	    -19.05926114	     -0.82103292	      0.84134308	     -0.38274477	    -10.09642820	     -1.91539523	      7.81192254	    -12.19770328	     24.53676826	     -1.63741408	     38.78321702	    -14.73469570	     -7.22028286	    -20.11370243	      6.38464068	      5.37877330	     -5.85498214	      2.27083082	     20.17014924
      1.93000000	     -6.62182278	     -1.06154173	    -19.09694722	     -0.81175824	      0.83998284	     -0.38383468	    -10.61109540	     -2.08925863	      7.88283443	    -12.11119962	     24.06204080	     -1.20615005	     39.06698659	    -14.75629755	     -7.46828843	    -20.92738673	      6.42499454	      4.97544112	     -5.69776137	      2.36552340	     20.27240812
      1.94000000	     -6.80660280	     -1.15872704	    -19.13077644	     -0.80224225	      0.83868342	     -0.38501553	    -11.07371827	     -2.28654541	      7.94577231	    -12.07837080	     23.50699908	     -0.64681494	     39.33818118	    -14.74087044	     -7.67282519	    -21.79003890	      6.40304951	      4.47597444	     -5.49971056	      2.43503777	     20.34577814
      1.95000000	     -7.01301687	     -1.23362375	    -19.17430545	     -0.79250888	      0.83746876	     -0.38627678	    -11.48385007	     -2.50933350	      8.02808743	    -12.09301056	     22.87115055	     -0.05595233	     39.59170437	    -14.69900622	     -7.84721466	    -22.68367064	      6.28101917	      3.99972811	     -5.26694341	      2.47687119	     20.44047465
      1.96000000	     -7.23676374	     -1.28044500	    -19.23248942	     -0.78259160	      0.83635933	     -0.38759023	    -11.83079016	     -2.76099289	      8.14813833	    -12.17412676	     22.15186055	      0.56904477	     39.83260416	    -14.63336248	     -7.98997892	    -23.60332733	      6.01224323	      3.56036534	     -5.00568892	      2.47827098	     20.54626668
      1.97000000	     -7.47044196	     -1.28362963	    -19.30247079	     -0.77251081	      0.83538820	     -0.38895195	    -12.10333426	     -3.05662117	      8.31583330	    -12.34107021	     21.34640671	      1.23240531	     40.06402500	    -14.53232955	     -8.10968902	    -24.53970693	      5.56386114	      3.17544943	     -4.72031297	      2.41877732	     20.66044267
      1.98000000	     -7.69302229	     -1.23725034	    -19.38028461	     -0.76228988	      0.83460372	     -0.39035583	    -12.30181746	     -3.40319427	      8.52876676	    -12.62694148	     20.46505182	      1.92077738	     40.28033083	    -14.38955182	     -8.21840483	    -25.49882762	      4.94074983	      2.87479868	     -4.43516654	      2.28377237	     20.77404361
      1.99000000	     -7.88739708	     -1.13558822	    -19.45763851	     -0.75192411	      0.83405536	     -0.39179787	    -12.43321370	     -3.80739387	      8.77016376	    -13.04313320	     19.49373281	      2.62136696	     40.46947657	    -14.19167794	     -8.30749873	    -26.47995668	      4.19928520	      2.67987749	     -4.16462431	      2.06034657	     20.90656579
